<svg width="42" height="40" viewBox="0 0 42 40" fill="none" xmlns="http://www.w3.org/2000/svg">
<path d="M29.6964 27.4143C30.114 26.9983 30.5093 26.6134 30.8918 26.2166C30.9693 26.1362 31.0334 26.0147 31.0451 25.906C31.1453 24.978 30.8256 24.2078 30.1004 23.611C29.9043 23.4496 29.6502 23.3364 29.3967 23.4099C28.8151 23.5784 28.4152 23.9704 28.1864 24.5185C28.1352 24.641 28.1227 24.8099 28.1647 24.9335C28.2809 25.2755 28.3823 25.6227 28.5886 25.9344C28.9133 26.425 29.2104 26.9329 29.6964 27.4143ZM23.1135 28.9266C24.8714 28.8304 26.5659 28.8449 28.2828 28.5114C27.7544 27.4919 27.3378 26.6569 27.5037 25.4685C27.63 24.5626 27.9926 23.7074 28.3518 22.8641C28.6127 22.2513 28.9231 21.5861 29.5348 21.3059C30.228 20.9884 31.1007 21.3189 31.5621 21.9194C32.0236 22.5198 32.1367 23.3191 32.0757 24.0699C31.961 25.4834 31.5782 27.057 30.5971 28.1405C30.5625 28.1789 30.5381 28.2262 30.504 28.2764C30.2364 28.6716 32.0347 28.6592 32.1183 28.6553C33.0281 28.6133 33.9381 28.5749 34.848 28.5347C36.7974 28.4485 38.7783 28.4529 40.7169 28.2384C40.6826 27.7202 40.5532 27.2455 40.3799 26.7852C40.0848 26.0019 39.6363 25.3061 39.0363 24.7165C38.8188 24.5028 38.767 24.3054 38.861 24.0195C39.0397 23.4754 39.1831 22.9201 39.3438 22.3701C39.3617 22.309 39.3963 22.2527 39.4203 22.2005C39.5763 21.8606 40.7668 23.5292 40.8338 23.6474C41.2482 24.3782 41.5197 25.1882 41.6211 26.0197C41.7861 27.3731 41.4996 28.7763 40.816 29.9614C40.7149 30.1366 40.5992 30.3134 40.4242 30.4174C40.2367 30.5289 40.0077 30.5418 39.789 30.5518C36.928 30.6822 34.0669 30.8127 31.2058 30.9431C30.9675 30.9539 30.7242 30.9643 30.4947 30.9001C29.965 30.7518 29.3595 29.481 28.905 29.8478C28.2505 30.3758 27.7761 30.814 26.9072 30.9123C25.7692 31.0412 24.6261 31.1272 23.4815 31.1701C22.7776 31.1965 21.5612 31.4335 21.5696 30.3955C21.5841 29.1647 21.588 27.9337 21.5948 26.7029C21.604 26.6504 21.5929 26.6033 21.5614 26.5616C19.2092 27.6029 16.7461 28.4137 14.1458 28.594C11.6295 28.7685 9.03829 28.3463 6.8258 27.153C5.6383 26.5125 4.57408 25.6596 3.65797 24.6777C1.54817 22.4165 0.19933 19.4211 0.000346858 16.35C-0.00418694 16.2805 0.0357535 16.208 0.118513 16.1274C0.62618 17.4 0.889778 18.7368 1.39934 20C3.2395 24.5617 8.27291 26.9275 13.0624 26.7974C14.6081 26.7554 16.1417 26.4964 17.6306 26.0914C18.3935 25.8839 19.1453 25.6378 19.8856 25.3621C20.1444 25.2658 21.5944 24.7944 21.6 24.4039C21.6063 23.9621 21.6118 23.444 21.6223 22.9261C21.6268 22.705 21.657 22.4836 21.6492 22.2633C21.6246 21.573 21.584 20.8831 21.5563 20.1929C21.5275 19.4735 21.51 18.7538 21.481 18.0345C21.4505 17.2739 21.3563 16.5229 21.118 15.794C21.0671 15.6384 20.9852 15.5347 20.8402 15.4374C20.3244 15.091 19.8371 14.7033 19.3209 14.3575C18.9536 14.1116 18.7694 13.7639 18.6651 13.3658C18.6309 13.2355 18.6452 13.0744 18.6907 12.9458C18.8786 12.4154 19.0777 11.8883 19.2915 11.3675C19.4161 11.0642 19.5109 11.039 19.8505 11.1073C21.6881 11.4766 22.5983 13.5688 22.7922 15.2134C22.9192 16.2914 23.0143 17.3755 23.0615 18.4597C23.1125 19.6307 23.092 20.8048 23.1029 21.9775C23.1066 22.3655 23.1111 22.7536 23.1154 23.1734C23.1976 23.1583 23.253 23.1631 23.2882 23.1391C26.111 21.2157 30.3369 17.3298 29.8319 13.5002C29.6794 12.3433 29.3095 11.2167 28.6714 10.2291C28.3159 9.67862 27.8956 9.16615 27.4749 8.66049C27.306 8.45739 27.2286 8.27308 27.2945 8.02156C27.4436 7.45181 27.5838 6.8798 27.7341 6.31041C27.7527 6.23987 27.8105 6.1794 27.8458 6.12148C28.0643 6.09639 28.1845 6.22356 28.3043 6.34507C31.7747 9.86669 31.1947 15.0811 28.8013 19.023C27.8351 20.6143 26.6087 22.0359 25.2798 23.3432C24.9515 23.6661 24.6163 23.9823 24.2766 24.2934C22.9615 25.4979 23.1294 26.104 23.1276 27.8993C23.1272 28.2235 23.119 28.5476 23.1135 28.9266Z" fill="#2C5952"/>
<path d="M33.2489 4.47948C32.9235 4.5257 32.7632 4.34422 32.586 4.12659C32.0601 3.48099 31.5109 2.85326 30.9553 2.23198C30.8076 2.0668 30.7632 1.90928 30.8307 1.71249C30.9969 1.22817 31.1542 0.740443 31.3389 0.262996C31.4521 -0.0295684 31.5372 -0.0485666 31.8432 0.0632275C32.2438 0.209474 32.6124 0.40662 32.9175 0.709109C33.0279 0.818422 33.1526 0.913486 33.2694 1.01649C34.0901 1.73929 34.5728 2.65143 34.8404 3.69302C35.112 4.75064 35.1831 5.83058 35.2372 6.91202C35.2985 8.13636 35.3456 9.36149 35.3843 10.5868C35.4295 12.0148 35.4385 13.4442 35.501 14.8714C35.5608 16.2388 35.6567 17.6049 35.76 18.9699C35.8495 20.152 36.195 21.2577 36.8722 22.2503C36.8858 22.27 36.8957 22.2922 36.91 22.3112C37.0403 22.4847 37.1202 22.6541 37.1366 22.8261C37.1899 23.384 36.653 24.0704 36.3923 24.568C36.2607 24.8191 36.1626 24.844 35.9539 24.6545C35.3629 24.1179 34.5882 23.848 33.869 23.523C33.5728 23.3891 33.5447 23.3385 33.6608 23.0292C33.7821 22.7061 33.9078 22.3826 34.0613 22.0736C34.1751 21.8444 34.5048 21.3991 34.4584 21.1523C34.2169 19.871 34.2224 18.569 34.1376 17.2758C34.0669 16.1959 34.0781 15.1109 34.0457 14.0284C34.0072 12.7435 33.9584 11.4588 33.919 10.1738C33.9 9.55523 33.907 8.93558 33.8758 8.3177C33.82 7.21131 33.7145 6.10954 33.4375 5.03151C33.3906 4.84875 33.3159 4.67301 33.2489 4.47948Z" fill="#2C5952"/>
<path d="M23.7056 12.0118C24.1167 11.292 24.6067 10.6856 25.0991 10.0759C25.6826 10.3275 26.5884 11.0772 26.7439 11.7391C26.7993 11.975 26.7653 12.2278 26.6397 12.4903C26.4983 12.7858 26.3482 13.0773 26.198 13.3685C26.1139 13.5317 26.0091 13.6855 25.9354 13.8527C25.7315 14.315 25.7878 14.563 26.1626 14.9038C26.348 15.0724 26.5449 15.2289 26.7272 15.4005C27.3815 16.0166 26.3567 17.0346 25.987 17.6182C25.9135 17.734 25.829 17.8431 25.6891 18.0404C25.6207 17.5499 25.2649 17.4131 25.024 17.175C24.9491 17.101 24.8646 17.0365 24.7861 16.9658C24.2417 16.4753 24.1366 16.1099 24.4103 15.4239C24.5845 14.9875 24.8116 14.5711 25.0244 14.1503C25.2529 13.6983 25.3136 13.4602 24.7532 12.9484C24.4144 12.6392 24.0693 12.3365 23.7056 12.0118Z" fill="#59A680"/>
<path d="M16.7024 23.177L19.4279 19.4062L14.862 16.2038L12.1365 19.9746L16.7024 23.177Z" fill="#59A680"/>
<path d="M35.764 26.4761L35.3573 27.092H33.0065C32.931 27.092 32.8958 27.0598 32.9009 26.9956C32.9101 26.8793 33.0565 26.4761 33.2099 26.4761H33.9104C33.7162 26.308 33.541 26.0811 33.5941 25.8118C33.6715 25.4205 34.2046 25.1974 34.5247 25.0435C34.6377 24.989 34.7469 24.9396 34.8525 24.8951C34.9022 24.8706 34.9514 24.8912 34.9691 24.9434C35.0419 25.1559 34.4579 25.3814 34.295 25.4963C34.175 25.5803 34.121 25.6524 34.1969 25.7894C34.5087 26.3519 35.1683 26.4761 35.764 26.4761Z" fill="#59A680"/>
<path d="M2.13323 34.4935H2.8418V39.5949H2.13323V34.4935Z" fill="#59A680"/>
<path d="M12.1497 34.4935V35.1013H10.4047V39.5949H9.69602V35.1013H7.95101V34.4935H12.1497Z" fill="#59A680"/>
<path d="M19.9205 39.0998C20.0476 39.0798 20.1582 39.0406 20.2524 38.9819L19.681 38.5453L20.0333 38.1182L20.7088 38.6372C20.9232 38.3962 21.0687 38.1263 21.1453 37.8273C21.2219 37.5283 21.2601 37.2419 21.2601 36.9684C21.2601 36.368 21.1008 35.8849 20.7824 35.5187C20.4639 35.1524 20.0286 34.9693 19.4763 34.9693C18.9169 34.9693 18.4739 35.1448 18.1472 35.4958C17.8205 35.8469 17.6572 36.3873 17.6572 37.1173C17.6572 37.7312 17.8143 38.2201 18.1286 38.584C18.4427 38.9476 18.9036 39.1295 19.5109 39.1295C19.6569 39.1295 19.7934 39.1195 19.9205 39.0998ZM21.9369 39.581L21.5854 40L20.7834 39.4008C20.5909 39.5048 20.3823 39.5881 20.1578 39.6504C19.9334 39.713 19.6884 39.7442 19.423 39.7442C18.6192 39.7442 17.9896 39.4849 17.5336 38.9663C17.1319 38.4616 16.931 37.8296 16.931 37.0702C16.931 36.3803 17.1049 35.79 17.4527 35.2992C17.8993 34.6695 18.5597 34.3546 19.434 34.3546C20.3482 34.3546 21.0251 34.644 21.4646 35.2226C21.8077 35.6738 21.9792 36.2515 21.9792 36.9548C21.9792 37.2836 21.9382 37.5997 21.856 37.9029C21.7317 38.3658 21.5218 38.7429 21.226 39.0346L21.9369 39.581Z" fill="#59A680"/>
<path d="M29.877 37.5043L29.0908 35.2506L28.2553 37.5043H29.877ZM28.7242 34.4935H29.5174L31.3964 39.5949H30.6279L30.1026 38.0669H28.0544L27.4939 39.5949H26.7747L28.7242 34.4935Z" fill="#59A680"/>
<path d="M36.4386 34.4935H37.2651L39.8476 38.6152V34.4935H40.5175V39.5949H39.7293L37.1084 35.4782V39.5949H36.4386V34.4935Z" fill="#59A680"/>
<path d="M37.478 14.1734C37.889 13.4535 38.3083 12.7836 38.8007 12.1739C39.3842 12.4255 40.3608 13.2388 40.5163 13.9007C40.5717 14.1366 40.5377 14.3894 40.4121 14.6519C40.2707 14.9473 40.1206 15.2388 39.9704 15.5301C39.8863 15.6933 39.7815 15.8471 39.7077 16.0143C39.5038 16.4766 39.5602 16.7246 39.935 17.0654C40.1204 17.234 40.3173 17.3905 40.4996 17.5621C41.1539 18.1782 40.1291 19.1962 39.7593 19.7798C39.6858 19.8956 39.602 20.02 39.4621 20.2174C39.3924 19.718 38.9084 19.4426 38.5585 19.1274C38.0141 18.6369 37.909 18.2715 38.1827 17.5855C38.3569 17.1491 38.584 16.7326 38.7967 16.3119C39.0253 15.8598 39.0859 15.6218 38.5256 15.11C38.1867 14.8007 37.8417 14.4981 37.478 14.1734Z" fill="#59A680"/>
</svg>
